<?xml version="1.0" encoding="UTF-8" standalone="no"?>
<!-- Created with Inkscape (http://www.inkscape.org/) -->

<svg
   xmlns:dc="http://purl.org/dc/elements/1.1/"
   xmlns:cc="http://creativecommons.org/ns#"
   xmlns:rdf="http://www.w3.org/1999/02/22-rdf-syntax-ns#"
   xmlns:svg="http://www.w3.org/2000/svg"
   xmlns="http://www.w3.org/2000/svg"
   version="1.1"
   width="128"
   height="128"
   id="svg2">
  <defs
     id="defs4" />
  <metadata
     id="metadata7">
    <rdf:RDF>
      <cc:Work
         rdf:about="">
        <dc:format>image/svg+xml</dc:format>
        <dc:type
           rdf:resource="http://purl.org/dc/dcmitype/StillImage" />
        <dc:title></dc:title>
      </cc:Work>
    </rdf:RDF>
  </metadata>
  <g
     transform="translate(0,-924.36218)"
     id="layer1">
    <path
       d="m 96,64 a 32,32 0 1 1 -64,0 32,32 0 1 1 64,0 z"
       transform="translate(0,924.36218)"
       id="path2989"
       style="color:#000000;fill:#c3c3c3;fill-opacity:1;fill-rule:evenodd;stroke:none;visibility:visible;display:inline;overflow:visible;enable-background:accumulate" />
    <path
       d="M 56,8 56,24 72,24 72,8 56,8 z M 8,56 8,72 24,72 24,56 8,56 z m 96,0 0,16 16,0 0,-16 -16,0 z m -48,48 0,16 16,0 0,-16 -16,0 z"
       transform="translate(0,924.36218)"
       id="rect3836"
       style="color:#000000;fill:#c3c3c3;fill-opacity:1;fill-rule:evenodd;stroke:none;visibility:visible;display:inline;overflow:visible;enable-background:accumulate" />
  </g>
</svg>
