<?xml version="1.0" encoding="UTF-8" standalone="no"?>
<!-- Created with Inkscape (http://www.inkscape.org/) -->

<svg
   xmlns:dc="http://purl.org/dc/elements/1.1/"
   xmlns:cc="http://creativecommons.org/ns#"
   xmlns:rdf="http://www.w3.org/1999/02/22-rdf-syntax-ns#"
   xmlns:svg="http://www.w3.org/2000/svg"
   xmlns="http://www.w3.org/2000/svg"
   version="1.1"
   width="128"
   height="128"
   id="svg2">
  <defs
     id="defs4" />
  <metadata
     id="metadata7">
    <rdf:RDF>
      <cc:Work
         rdf:about="">
        <dc:format>image/svg+xml</dc:format>
        <dc:type
           rdf:resource="http://purl.org/dc/dcmitype/StillImage" />
        <dc:title></dc:title>
      </cc:Work>
    </rdf:RDF>
  </metadata>
  <g
     transform="translate(0,-924.36218)"
     id="layer1">
    <path
       d="m 88,980.36234 c -11.994486,0 -22.427089,6.60936 -27.90625,16.375 -1.33076,-0.22878 -2.697687,-0.375 -4.09375,-0.375 -10.483055,0 -19.386878,6.72566 -22.65625,16.09386 -0.447304,-0.038 -0.886736,-0.094 -1.34375,-0.094 -8.836556,0 -16,7.1634 -16,16 0,8.8365 7.163444,16 16,16 l 56,0 c 17.67311,0 32,-14.3269 32,-32 0,-17.67322 -14.32689,-32.00011 -32,-32.00011 z"
       id="path3847"
       style="color:#000000;fill:#c3c3c3;fill-opacity:0.45744683;fill-rule:evenodd;stroke:none;visibility:visible;display:inline;overflow:visible;enable-background:accumulate" />
    <path
       d="m 80,956.36218 c -11.994486,0 -22.427089,6.60936 -27.90625,16.375 -1.33076,-0.22878 -2.697687,-0.375 -4.09375,-0.375 -10.483055,0 -19.386878,6.72564 -22.65625,16.09382 -0.447304,-0.038 -0.886736,-0.094 -1.34375,-0.094 -8.836556,0 -16,7.1634 -16,16 0,8.8365 7.163444,16 16,16 l 56,0 c 17.67311,0 32,-14.3269 32,-32 0,-17.67318 -14.32689,-32.00008 -32,-32.00008 z"
       id="path4019"
       style="color:#000000;fill:#c3c3c3;fill-opacity:0.45744683;fill-rule:evenodd;stroke:none;visibility:visible;display:inline;overflow:visible;enable-background:accumulate" />
  </g>
</svg>
