<?xml version="1.0" encoding="UTF-8" standalone="no"?>
<!-- Created with Inkscape (http://www.inkscape.org/) -->

<svg
   xmlns:dc="http://purl.org/dc/elements/1.1/"
   xmlns:cc="http://creativecommons.org/ns#"
   xmlns:rdf="http://www.w3.org/1999/02/22-rdf-syntax-ns#"
   xmlns:svg="http://www.w3.org/2000/svg"
   xmlns="http://www.w3.org/2000/svg"
   version="1.1"
   width="128"
   height="128"
   id="svg2">
  <defs
     id="defs4" />
  <metadata
     id="metadata7">
    <rdf:RDF>
      <cc:Work
         rdf:about="">
        <dc:format>image/svg+xml</dc:format>
        <dc:type
           rdf:resource="http://purl.org/dc/dcmitype/StillImage" />
        <dc:title></dc:title>
      </cc:Work>
    </rdf:RDF>
  </metadata>
  <g
     transform="translate(0,-924.36218)"
     id="layer1">
    <path
       d="m 88,932.3624 c -11.994486,0 -22.427089,6.60936 -27.90625,16.375 -1.33076,-0.22878 -2.697687,-0.375 -4.09375,-0.375 -10.483055,0 -19.386878,6.72564 -22.65625,16.09378 -0.447304,-0.038 -0.886736,-0.094 -1.34375,-0.094 -8.836556,0 -16,7.16342 -16,16.00002 0,8.8365 7.163444,16 16,16 l 56,0 c 17.67311,0 32,-14.3269 32,-32.00002 0,-17.67314 -14.32689,-32.00003 -32,-32.00003 z"
       id="path3847"
       style="color:#000000;fill:#c3c3c3;fill-opacity:1;fill-rule:evenodd;stroke:none;visibility:visible;display:inline;overflow:visible;enable-background:accumulate" />
    <path
       d="m 40,84 a 4,4 0 1 1 -8,0 4,4 0 1 1 8,0 z"
       transform="translate(0,924.36218)"
       id="path3869"
       style="color:#000000;fill:#c3c3c3;fill-opacity:1;fill-rule:evenodd;stroke:none;visibility:visible;display:inline;overflow:visible;enable-background:accumulate" />
    <path
       d="m 48,100 a 4,4 0 1 1 -8,0 4,4 0 1 1 8,0 z"
       transform="translate(0,924.36218)"
       id="path3871"
       style="color:#000000;fill:#c3c3c3;fill-opacity:1;fill-rule:evenodd;stroke:none;visibility:visible;display:inline;overflow:visible;enable-background:accumulate" />
    <path
       d="m 68,1006.3622 c -1.108,0 -2,0.892 -2,2 l 0,4.5313 -3.921875,-2.2657 c -0.959556,-0.554 -2.180376,-0.2252 -2.734375,0.7344 -0.553999,0.9596 -0.225181,2.1803 0.734375,2.7343 L 64,1016.3622 l -3.921875,2.2656 c -0.959556,0.554 -1.288375,1.7749 -0.734375,2.7344 0.554,0.9596 1.774819,1.2884 2.734375,0.7344 L 66,1019.831 l 0,4.5312 c 0,1.108 0.892,2 2,2 1.108,0 2,-0.892 2,-2 l 0,-4.5312 3.92187,2.2656 c 0.95956,0.5539 2.18037,0.2252 2.73438,-0.7344 0.554,-0.9595 0.22518,-2.1804 -0.73438,-2.7344 L 72,1016.3622 l 3.92187,-2.2657 c 0.95956,-0.5539 1.28838,-1.7747 0.73438,-2.7343 -0.554,-0.9596 -1.77482,-1.2884 -2.73438,-0.7344 L 70,1012.8935 l 0,-4.5313 c 0,-1.108 -0.892,-2 -2,-2 z"
       id="rect3904"
       style="color:#000000;fill:#c3c3c3;fill-opacity:1;fill-rule:evenodd;stroke:none;visibility:visible;display:inline;overflow:visible;enable-background:accumulate" />
    <path
       d="m 92,1022.3622 c -1.108,0 -2,0.892 -2,2 l 0,4.5313 -3.921875,-2.2657 c -0.959556,-0.554 -2.180376,-0.2252 -2.734375,0.7344 -0.553999,0.9596 -0.225181,2.1803 0.734375,2.7343 L 88,1032.3622 l -3.921875,2.2656 c -0.959556,0.554 -1.288375,1.7749 -0.734375,2.7344 0.554,0.9596 1.774819,1.2884 2.734375,0.7344 L 90,1035.831 l 0,4.5312 c 0,1.108 0.892,2 2,2 1.108,0 2,-0.892 2,-2 l 0,-4.5312 3.92187,2.2656 c 0.95956,0.5539 2.18037,0.2252 2.73438,-0.7344 0.554,-0.9595 0.22518,-2.1804 -0.73438,-2.7344 L 96,1032.3622 l 3.92187,-2.2657 c 0.95956,-0.5539 1.28838,-1.7747 0.73438,-2.7343 -0.554,-0.9596 -1.77482,-1.2884 -2.73438,-0.7344 L 94,1028.8935 l 0,-4.5313 c 0,-1.108 -0.892,-2 -2,-2 z"
       id="path4015"
       style="color:#000000;fill:#c3c3c3;fill-opacity:1;fill-rule:evenodd;stroke:none;visibility:visible;display:inline;overflow:visible;enable-background:accumulate" />
    <path
       d="m 48,100 a 4,4 0 1 1 -8,0 4,4 0 1 1 8,0 z"
       transform="translate(48,908.36218)"
       id="path4017"
       style="color:#000000;fill:#c3c3c3;fill-opacity:1;fill-rule:evenodd;stroke:none;visibility:visible;display:inline;overflow:visible;enable-background:accumulate" />
  </g>
</svg>
