<?xml version="1.0" encoding="UTF-8" standalone="no"?>
<!-- Created with Inkscape (http://www.inkscape.org/) -->

<svg
   xmlns:dc="http://purl.org/dc/elements/1.1/"
   xmlns:cc="http://creativecommons.org/ns#"
   xmlns:rdf="http://www.w3.org/1999/02/22-rdf-syntax-ns#"
   xmlns:svg="http://www.w3.org/2000/svg"
   xmlns="http://www.w3.org/2000/svg"
   version="1.1"
   width="128"
   height="128"
   id="svg2">
  <defs
     id="defs4" />
  <metadata
     id="metadata7">
    <rdf:RDF>
      <cc:Work
         rdf:about="">
        <dc:format>image/svg+xml</dc:format>
        <dc:type
           rdf:resource="http://purl.org/dc/dcmitype/StillImage" />
        <dc:title></dc:title>
      </cc:Work>
    </rdf:RDF>
  </metadata>
  <g
     transform="translate(0,-924.36218)"
     id="layer1">
    <path
       d="m 64,44 c -2.216,0 -4,1.784 -4,4 l 0,9.0625 -7.84375,-4.53125 C 50.237138,51.42325 47.795498,52.08089 46.6875,54 c -1.107998,1.91911 -0.450362,4.36075 1.46875,5.46875 L 56,64 48.15625,68.53125 C 46.237138,69.63925 45.5795,72.08089 46.6875,74 c 1.108,1.91911 3.549638,2.57675 5.46875,1.46875 L 60,70.9375 60,80 c 0,2.216 1.784,4 4,4 2.216,0 4,-1.784 4,-4 l 0,-9.0625 7.84375,4.53125 c 1.919112,1.108 4.360743,0.45036 5.46875,-1.46875 1.107998,-1.91911 0.450362,-4.36075 -1.46875,-5.46875 L 72,64 79.84375,59.46875 C 81.762862,58.36075 82.4205,55.91912 81.3125,54 80.2045,52.08089 77.762862,51.42325 75.84375,52.53125 L 68,57.0625 68,48 c 0,-2.216 -1.784,-4 -4,-4 z"
       transform="translate(0,924.36218)"
       id="rect3904"
       style="color:#000000;fill:#c3c3c3;fill-opacity:1;fill-rule:evenodd;stroke:none;visibility:visible;display:inline;overflow:visible;enable-background:accumulate" />
    <path
       d="m 64,16 c -2.216,0 -4,1.784 -4,4 l 0,12 c 0,2.216 1.784,4 4,4 2.216,0 4,-1.784 4,-4 l 0,-12 c 0,-2.216 -1.784,-4 -4,-4 z M 25.625,38 c -1.27988,0.08947 -2.495006,0.800556 -3.1875,2 -1.107989,1.9191 -0.450362,4.36075 1.46875,5.46875 l 10.375,6 C 36.200362,52.57675 38.642011,51.9191 39.75,50 c 1.10799,-1.91911 0.450371,-4.36075 -1.46875,-5.46875 l -10.375,-6 C 27.186583,38.11575 26.392928,37.946318 25.625,38 z m 76.75,0 c -0.76793,-0.05368 -1.56158,0.11575 -2.28125,0.53125 l -10.375,6 C 87.799637,45.63925 87.142,48.08089 88.25,50 c 1.108,1.91912 3.549637,2.57675 5.46875,1.46875 l 10.375,-6 C 106.01286,44.36075 106.6705,41.91912 105.5625,40 104.87,38.800556 103.65488,38.08947 102.375,38 z M 36.5625,76 c -0.767927,-0.05368 -1.561583,0.115746 -2.28125,0.53125 l -10.375,6 C 21.987137,83.63925 21.3295,86.0809 22.4375,88 c 1.108,1.9191 3.549637,2.57675 5.46875,1.46875 l 10.375,-6 C 40.200363,82.36075 40.858,79.9191 39.75,78 39.0575,76.800562 37.842378,76.089472 36.5625,76 z m 54.875,0 c -1.279878,0.08947 -2.495001,0.800563 -3.1875,2 -1.108007,1.9191 -0.450362,4.36075 1.46875,5.46875 l 10.375,6 c 1.91912,1.108 4.36075,0.45035 5.46875,-1.46875 1.108,-1.9191 0.45036,-4.36075 -1.46875,-5.46875 l -10.375,-6 C 92.999083,76.115746 92.205427,75.946317 91.4375,76 z M 64,92 c -2.216,0 -4,1.784 -4,4 l 0,12 c 0,2.216 1.784,4 4,4 2.216,0 4,-1.784 4,-4 l 0,-12 c 0,-2.216 -1.784,-4 -4,-4 z"
       transform="translate(0,924.36218)"
       id="path3925"
       style="color:#000000;fill:#c3c3c3;fill-opacity:1;fill-rule:evenodd;stroke:none;visibility:visible;display:inline;overflow:visible;enable-background:accumulate" />
  </g>
</svg>
